<svg width="40" height="40" viewBox="0 0 40 40" fill="none" xmlns="http://www.w3.org/2000/svg">
  <!-- Building 1 - Tall apartment building -->
  <rect x="4" y="8" width="6" height="24" fill="#1a3b6d"/>
  <rect x="5" y="10" width="1" height="1" fill="white"/>
  <rect x="7" y="10" width="1" height="1" fill="white"/>
  <rect x="5" y="13" width="1" height="1" fill="white"/>
  <rect x="7" y="13" width="1" height="1" fill="white"/>
  <rect x="5" y="16" width="1" height="1" fill="white"/>
  <rect x="7" y="16" width="1" height="1" fill="white"/>
  <rect x="5" y="19" width="1" height="1" fill="white"/>
  <rect x="7" y="19" width="1" height="1" fill="white"/>
  <rect x="5" y="22" width="1" height="1" fill="white"/>
  <rect x="7" y="22" width="1" height="1" fill="white"/>
  <rect x="5" y="25" width="1" height="1" fill="white"/>
  <rect x="7" y="25" width="1" height="1" fill="white"/>
  
  <!-- Building 2 - Medium building -->
  <rect x="12" y="12" width="6" height="20" fill="#1a3b6d"/>
  <rect x="13" y="14" width="1" height="1" fill="white"/>
  <rect x="15" y="14" width="1" height="1" fill="white"/>
  <rect x="13" y="17" width="1" height="1" fill="white"/>
  <rect x="15" y="17" width="1" height="1" fill="white"/>
  <rect x="13" y="20" width="1" height="1" fill="white"/>
  <rect x="15" y="20" width="1" height="1" fill="white"/>
  <rect x="13" y="23" width="1" height="1" fill="white"/>
  <rect x="15" y="23" width="1" height="1" fill="white"/>
  
  <!-- Building 3 - Single family house -->
  <rect x="20" y="16" width="8" height="16" fill="#1a3b6d"/>
  <polygon points="18,16 24,8 30,16" fill="#1a3b6d"/>
  <rect x="22" y="18" width="2" height="2" fill="white"/>
  <rect x="25" y="18" width="2" height="2" fill="white"/>
  <rect x="22" y="22" width="2" height="2" fill="white"/>
  <rect x="25" y="22" width="2" height="2" fill="white"/>
  
  <!-- Golden swoosh underneath -->
  <path d="M2 34 Q20 30 38 34" stroke="#FFD700" stroke-width="3" fill="none" stroke-linecap="round"/>
</svg>
